<?xml version="1.0" standalone="no"?><!DOCTYPE svg PUBLIC "-//W3C//DTD SVG 1.1//EN" "http://www.w3.org/Graphics/SVG/1.1/DTD/svg11.dtd"><svg t="1620922248260" class="icon" viewBox="0 0 1024 1024" version="1.1" xmlns="http://www.w3.org/2000/svg" p-id="6042" xmlns:xlink="http://www.w3.org/1999/xlink" width="128" height="128"><defs><style type="text/css"></style></defs><path d="M 508.55 2.42775 l 36.2246 36.1607 L 255.553 327.746 l -36.1607 -36.1607 Z" fill="#1890ff" p-id="6043"></path><path d="M 800.519 289.094 l -36.1607 36.1607 L 475.328 36.0968 l 36.0968 -36.0968 Z M 996.656 627.893 l 25.5553 -44.7217 l -210.831 -140.554 l -25.5553 38.3329 Z M 792.214 532.061 V 1024 h 204.442 v -351.385 l -204.442 -140.554 Z m 146.943 274.719 h -102.221 V 704.559 h 102.221 v 102.221 Z M 25.5553 627.893 L 0 583.171 l 210.831 -140.554 l 25.5553 38.3329 Z M 229.997 532.061 L 25.5553 666.226 v 351.385 h 204.442 V 532.061 Z m -44.7217 274.719 H 83.0547 V 704.559 h 102.221 v 102.221 Z M 747.492 378.729 L 511.106 129.565 L 274.719 378.729 V 1024 h 134.165 v -140.554 c 0 -57.4994 44.7217 -102.221 102.221 -102.221 s 102.221 44.7217 102.221 102.221 V 1024 h 134.165 V 378.729 Z m -249.164 268.33 H 396.107 V 544.839 h 102.221 v 102.221 Z m 0 -140.554 H 396.107 V 404.285 h 102.221 v 102.221 Z m 146.943 140.554 H 543.05 V 544.839 h 102.221 v 102.221 Z m 0 -140.554 H 543.05 V 404.285 h 102.221 v 102.221 Z" fill="#1890ff" p-id="6044"></path></svg>