<?xml version="1.0" standalone="no"?><!DOCTYPE svg PUBLIC "-//W3C//DTD SVG 1.1//EN" "http://www.w3.org/Graphics/SVG/1.1/DTD/svg11.dtd"><svg t="1620712314139" class="icon" viewBox="0 0 1024 1024" version="1.1" xmlns="http://www.w3.org/2000/svg" p-id="1912" xmlns:xlink="http://www.w3.org/1999/xlink" width="128" height="128"><defs><style type="text/css"></style></defs><path d="M512 0a512 512 0 1 0 512 512A513.170286 513.170286 0 0 0 512 0z m0 936.228571A424.228571 424.228571 0 1 1 936.228571 512 424.813714 424.813714 0 0 1 512 936.228571z" p-id="1913"></path><path d="M347.574857 468.114286a70.217143 70.217143 0 1 0 0-139.849143 70.217143 70.217143 0 0 0 0 139.849143zM676.425143 325.339429a70.217143 70.217143 0 1 0 69.632 69.632 69.632 69.632 0 0 0-69.632-69.632zM702.171429 609.133714a43.300571 43.300571 0 0 0-53.248 31.597715 143.36 143.36 0 0 1-277.942858 0 43.885714 43.885714 0 1 0-85.430857 21.650285 234.057143 234.057143 0 0 0 448.219429 0 43.885714 43.885714 0 0 0-31.597714-53.248z" p-id="1914"></path></svg>